<?xml version="1.0" encoding="utf-8"?>
<!-- Generator: Adobe Illustrator 25.2.3, SVG Export Plug-In . SVG Version: 6.00 Build 0)  -->
<svg version="1.1" id="Layer_1" xmlns="http://www.w3.org/2000/svg" xmlns:xlink="http://www.w3.org/1999/xlink" x="0px" y="0px"
	 viewBox="0 0 240 240" style="enable-background:new 0 0 240 240;" xml:space="preserve">
<style type="text/css">
	.st0{fill:none;stroke:#F7BECA;stroke-width:8;stroke-linecap:round;stroke-linejoin:round;stroke-miterlimit:10;}
</style>
<circle class="st0" cx="120.5" cy="120.5" r="115.1"/>
<circle class="st0" cx="60.6" cy="109.4" r="22.5"/>
<circle class="st0" cx="135.6" cy="59.4" r="22.5"/>
<path class="st0" d="M127.4,77.3"/>
<path class="st0" d="M193.9,153.9h-10.9c-1.6,0-3-1.3-3-3V140c0-1.6,1.4-3,3-3h10.9c1.6,0,3,1.4,3,3v10.9
	C196.9,152.5,195.6,153.9,193.9,153.9z"/>
<line class="st0" x1="77.8" y1="95" x2="116.5" y2="71.1"/>
<path class="st0" d="M60.6,131.9"/>
<line class="st0" x1="69.8" y1="129.9" x2="87.2" y2="157.9"/>
<line class="st0" x1="83.4" y1="114.5" x2="181.1" y2="142"/>
<circle class="st0" cx="100.9" cy="180.4" r="22.5"/>
</svg>
