<?xml version="1.0" encoding="utf-8"?>
<!-- Generator: Adobe Illustrator 25.2.3, SVG Export Plug-In . SVG Version: 6.00 Build 0)  -->
<svg version="1.1" id="Layer_1" xmlns="http://www.w3.org/2000/svg" xmlns:xlink="http://www.w3.org/1999/xlink" x="0px" y="0px"
	 viewBox="0 0 240 240" style="enable-background:new 0 0 240 240;" xml:space="preserve">
<style type="text/css">
	.st0{fill:none;stroke:#F7BECA;stroke-width:8;stroke-linecap:round;stroke-linejoin:round;stroke-miterlimit:10;}
</style>
<path class="st0" d="M80.8,112l46.5,47.1l98.8-85.2c3.8,8.8,6.5,18.2,8,28.1c9.7,62.8-33.4,121.5-96.2,131.2S16.5,199.8,6.8,137
	S40.2,15.5,103,5.8c43.6-6.7,85.3,12,109.9,45.1"/>
<path class="st0" d="M62,90.5H40c-0.6,0-1-0.4-1-1v-22c0-0.5,0.4-1,1-1h22c0.5,0,1,0.5,1,1v22C63,90.1,62.6,90.5,62,90.5z"/>
<path class="st0" d="M62,132H40c-0.6,0-1-0.4-1-1v-22c0-0.6,0.4-1,1-1h22c0.5,0,1,0.4,1,1v22C63,131.6,62.6,132,62,132z"/>
<path class="st0" d="M62,173.5H40c-0.6,0-1-0.4-1-1v-22c0-0.5,0.4-1,1-1h22c0.5,0,1,0.5,1,1v22C63,173,62.6,173.5,62,173.5z"/>
</svg>
